<?xml version="1.0" encoding="UTF-8"?><svg id="a" xmlns="http://www.w3.org/2000/svg" viewBox="0 0 458.31 300.69"><defs><style>.b,.c{fill:#10945b;}.d{fill:#3e3e3f;}.e{font-family:MyriadPro-Regular, Myriad Pro;font-size:12px;}.c{fill-rule:evenodd;}</style></defs><rect class="d" x="0" y="0" width="16.1" height="16.1" rx="8.05" ry="8.05"/><g><path class="b" d="M6.43,10.92h.71l4.56-4.56-.71-.71-4.2,4.21-1.92-1.92-.71,.71,2.27,2.27Z"/><path class="c" d="M8.76,1.05c1.6,.1,3.1,.9,4.2,2,1.3,1.4,2,3.1,2,5.1,0,1.6-.6,3.1-1.6,4.4-1,1.2-2.4,2.1-4,2.4-1.6,.3-3.2,.1-4.6-.7s-2.5-2-3.1-3.5c-.6-1.5-.7-3.2-.2-4.7,.5-1.6,1.4-2.9,2.8-3.8,1.3-.9,2.9-1.3,4.5-1.2Zm.5,12.9c1.3-.3,2.5-1,3.4-2.1,.8-1.1,1.3-2.4,1.2-3.8,0-1.6-.6-3.2-1.7-4.3-1-1-2.2-1.6-3.6-1.7-1.3-.1-2.7,.2-3.8,1-1.1,.8-1.9,1.9-2.3,3.3-.4,1.3-.4,2.7,.2,4,.6,1.3,1.5,2.3,2.7,3,1.2,.7,2.6,.9,3.9,.6Z"/></g><text class="e" transform="translate(421.03 297.69)"><tspan x="0" y="0">10945B</tspan></text></svg>